<mxfile host="Electron" modified="2024-06-11T07:24:58.693Z" agent="Mozilla/5.0 (Macintosh; Intel Mac OS X 10_15_7) AppleWebKit/537.36 (KHTML, like Gecko) draw.io/24.5.1 Chrome/124.0.6367.207 Electron/30.0.6 Safari/537.36" etag="HEFEVsGNugYni75iyQvf" version="24.5.1" type="device">
  <diagram id="avjBS_V88wy_BeY-Tbqa" name="Page-1">
    <mxGraphModel dx="2070" dy="1512" grid="1" gridSize="10" guides="1" tooltips="1" connect="1" arrows="1" fold="1" page="1" pageScale="1" pageWidth="1169" pageHeight="827" math="0" shadow="0">
      <root>
        <mxCell id="0" />
        <mxCell id="1" parent="0" />
        <UserObject label="" tooltip="Inertia.&#xa;Likely to face a resistance to change." id="DQJrWs0o3BV4cv8Y2vMH-1">
          <mxCell style="rounded=0;whiteSpace=wrap;html=1;strokeColor=#000000;strokeWidth=5;fillColor=#000000;fontSize=14;" parent="1" vertex="1">
            <mxGeometry x="490" y="39" width="10" height="750" as="geometry" />
          </mxCell>
        </UserObject>
        <mxCell id="DQJrWs0o3BV4cv8Y2vMH-2" value="Arrival" style="text;html=1;strokeColor=default;fillColor=none;align=center;verticalAlign=middle;whiteSpace=wrap;rounded=0;fontColor=#000000;fontSize=24;" parent="1" vertex="1">
          <mxGeometry x="30" y="730" width="270" height="20" as="geometry" />
        </mxCell>
        <mxCell id="DQJrWs0o3BV4cv8Y2vMH-3" value="" style="verticalLabelPosition=bottom;html=1;verticalAlign=top;align=center;shape=mxgraph.floorplan.table;" parent="1" vertex="1">
          <mxGeometry x="700" y="269" width="170" height="120" as="geometry" />
        </mxCell>
        <mxCell id="DQJrWs0o3BV4cv8Y2vMH-4" value="" style="verticalLabelPosition=bottom;html=1;verticalAlign=top;align=center;shape=mxgraph.floorplan.chair;rotation=-195;" parent="1" vertex="1">
          <mxGeometry x="810" y="409" width="41" height="52" as="geometry" />
        </mxCell>
        <mxCell id="DQJrWs0o3BV4cv8Y2vMH-6" value="&lt;font color=&quot;#ff6666&quot;&gt;Confirm Booking&lt;/font&gt;" style="text;html=1;strokeColor=none;fillColor=none;align=center;verticalAlign=middle;whiteSpace=wrap;rounded=0;" parent="1" vertex="1">
          <mxGeometry x="758.25" y="290.25" width="53.5" height="85.5" as="geometry" />
        </mxCell>
        <mxCell id="DQJrWs0o3BV4cv8Y2vMH-7" value="" style="sketch=0;pointerEvents=1;shadow=0;dashed=0;html=1;strokeColor=none;fillColor=#505050;labelPosition=center;verticalLabelPosition=bottom;verticalAlign=top;outlineConnect=0;align=center;shape=mxgraph.office.concepts.mailbox2;" parent="1" vertex="1">
          <mxGeometry x="823.5" y="312.5" width="40" height="41" as="geometry" />
        </mxCell>
        <mxCell id="DQJrWs0o3BV4cv8Y2vMH-8" value="&lt;b&gt;Front Desk&lt;/b&gt;" style="text;html=1;strokeColor=none;fillColor=none;align=center;verticalAlign=middle;whiteSpace=wrap;rounded=0;" parent="1" vertex="1">
          <mxGeometry x="916.75" y="323" width="40" height="20" as="geometry" />
        </mxCell>
        <mxCell id="DQJrWs0o3BV4cv8Y2vMH-9" value="&lt;font style=&quot;font-size: 29px&quot;&gt;1&lt;/font&gt;" style="text;html=1;strokeColor=default;fillColor=none;align=center;verticalAlign=middle;whiteSpace=wrap;rounded=0;fontColor=#3333FF;" parent="1" vertex="1">
          <mxGeometry x="990" y="244" width="60" height="40" as="geometry" />
        </mxCell>
        <mxCell id="DQJrWs0o3BV4cv8Y2vMH-10" value="" style="verticalLabelPosition=bottom;sketch=0;aspect=fixed;html=1;verticalAlign=top;strokeColor=none;align=center;outlineConnect=0;shape=mxgraph.citrix.document;fillColor=#FF3333;" parent="1" vertex="1">
          <mxGeometry x="750" y="93" width="47" height="72" as="geometry" />
        </mxCell>
        <UserObject label="" tooltip="Point of change.&#xa;How the map is changing e.g. competitive forces." id="DQJrWs0o3BV4cv8Y2vMH-11">
          <mxCell style="endArrow=open;dashed=1;html=1;strokeColor=#CC0000;endFill=0;strokeWidth=2;" parent="1" target="DQJrWs0o3BV4cv8Y2vMH-7" edge="1" source="DQJrWs0o3BV4cv8Y2vMH-10">
            <mxGeometry width="50" height="50" relative="1" as="geometry">
              <mxPoint x="791.1774647887323" y="191" as="sourcePoint" />
              <mxPoint x="761.5239436619713" y="312" as="targetPoint" />
            </mxGeometry>
          </mxCell>
        </UserObject>
        <mxCell id="DQJrWs0o3BV4cv8Y2vMH-12" value="&lt;font color=&quot;#ff6666&quot;&gt;File Order&lt;br&gt;Confirmation from Inbox&lt;/font&gt;" style="text;html=1;strokeColor=none;fillColor=none;align=center;verticalAlign=middle;whiteSpace=wrap;rounded=0;" parent="1" vertex="1">
          <mxGeometry x="903.25" y="227" width="53.5" height="85.5" as="geometry" />
        </mxCell>
        <mxCell id="DQJrWs0o3BV4cv8Y2vMH-13" value="Booking Confirmation" style="text;html=1;strokeColor=none;fillColor=none;align=center;verticalAlign=middle;whiteSpace=wrap;rounded=0;" parent="1" vertex="1">
          <mxGeometry x="863.5" y="145" width="40" height="20" as="geometry" />
        </mxCell>
        <mxCell id="DQJrWs0o3BV4cv8Y2vMH-22" value="&lt;b&gt;Guest&lt;/b&gt;" style="text;html=1;strokeColor=none;fillColor=none;align=center;verticalAlign=middle;whiteSpace=wrap;rounded=0;" parent="1" vertex="1">
          <mxGeometry x="270" y="261" width="40" height="20" as="geometry" />
        </mxCell>
        <mxCell id="DQJrWs0o3BV4cv8Y2vMH-23" value="&lt;font style=&quot;font-size: 29px&quot;&gt;2&lt;/font&gt;" style="text;html=1;strokeColor=default;fillColor=none;align=center;verticalAlign=middle;whiteSpace=wrap;rounded=0;fontColor=#3333FF;" parent="1" vertex="1">
          <mxGeometry x="270" y="333.5" width="60" height="40" as="geometry" />
        </mxCell>
        <mxCell id="zEQnZdZl433EifgNQapH-1" value="" style="sketch=0;pointerEvents=1;shadow=0;dashed=0;html=1;strokeColor=none;fillColor=#505050;labelPosition=center;verticalLabelPosition=bottom;verticalAlign=top;outlineConnect=0;align=center;shape=mxgraph.office.users.user;" vertex="1" parent="1">
          <mxGeometry x="330" y="249" width="46" height="50" as="geometry" />
        </mxCell>
        <mxCell id="zEQnZdZl433EifgNQapH-2" value="" style="sketch=0;pointerEvents=1;shadow=0;dashed=0;html=1;strokeColor=none;fillColor=#505050;labelPosition=center;verticalLabelPosition=bottom;verticalAlign=top;outlineConnect=0;align=center;shape=mxgraph.office.concepts.mailbox;" vertex="1" parent="1">
          <mxGeometry x="710" y="313.5" width="40" height="25.5" as="geometry" />
        </mxCell>
        <UserObject label="" tooltip="Point of change.&#xa;How the map is changing e.g. competitive forces." id="zEQnZdZl433EifgNQapH-3">
          <mxCell style="endArrow=open;dashed=1;html=1;strokeColor=#CC0000;endFill=0;strokeWidth=2;" edge="1" parent="1" source="zEQnZdZl433EifgNQapH-1" target="zEQnZdZl433EifgNQapH-2">
            <mxGeometry width="50" height="50" relative="1" as="geometry">
              <mxPoint x="801.1774647887323" y="201" as="sourcePoint" />
              <mxPoint x="846" y="323" as="targetPoint" />
            </mxGeometry>
          </mxCell>
        </UserObject>
        <mxCell id="zEQnZdZl433EifgNQapH-5" value="" style="sketch=0;pointerEvents=1;shadow=0;dashed=0;html=1;strokeColor=none;fillColor=#505050;labelPosition=center;verticalLabelPosition=bottom;verticalAlign=top;outlineConnect=0;align=center;shape=mxgraph.office.concepts.folders;" vertex="1" parent="1">
          <mxGeometry x="840" y="191" width="57" height="53" as="geometry" />
        </mxCell>
        <UserObject label="" tooltip="Point of change.&#xa;How the map is changing e.g. competitive forces." id="zEQnZdZl433EifgNQapH-6">
          <mxCell style="endArrow=open;dashed=1;html=1;strokeColor=#CC0000;endFill=0;strokeWidth=2;" edge="1" parent="1" source="DQJrWs0o3BV4cv8Y2vMH-7" target="zEQnZdZl433EifgNQapH-5">
            <mxGeometry width="50" height="50" relative="1" as="geometry">
              <mxPoint x="807" y="161" as="sourcePoint" />
              <mxPoint x="850" y="201" as="targetPoint" />
            </mxGeometry>
          </mxCell>
        </UserObject>
        <mxCell id="zEQnZdZl433EifgNQapH-7" value="Present Credentials" style="text;html=1;strokeColor=none;fillColor=none;align=center;verticalAlign=middle;whiteSpace=wrap;rounded=0;" vertex="1" parent="1">
          <mxGeometry x="540" y="319" width="40" height="20" as="geometry" />
        </mxCell>
        <mxCell id="zEQnZdZl433EifgNQapH-8" value="" style="sketch=0;pointerEvents=1;shadow=0;dashed=0;html=1;strokeColor=none;fillColor=#505050;labelPosition=center;verticalLabelPosition=bottom;verticalAlign=top;outlineConnect=0;align=center;shape=mxgraph.office.communications.global_address_list;" vertex="1" parent="1">
          <mxGeometry x="540" y="243.25" width="59" height="53" as="geometry" />
        </mxCell>
        <mxCell id="zEQnZdZl433EifgNQapH-9" value="" style="image;html=1;image=img/lib/clip_art/finance/Credit_Card_128x128.png" vertex="1" parent="1">
          <mxGeometry x="520" y="199" width="40" height="50" as="geometry" />
        </mxCell>
        <UserObject label="" tooltip="Point of change.&#xa;How the map is changing e.g. competitive forces." id="zEQnZdZl433EifgNQapH-10">
          <mxCell style="endArrow=open;dashed=1;html=1;strokeColor=#CC0000;endFill=0;strokeWidth=2;" edge="1" parent="1" source="DQJrWs0o3BV4cv8Y2vMH-4">
            <mxGeometry width="50" height="50" relative="1" as="geometry">
              <mxPoint x="796" y="175" as="sourcePoint" />
              <mxPoint x="846" y="323" as="targetPoint" />
            </mxGeometry>
          </mxCell>
        </UserObject>
        <mxCell id="zEQnZdZl433EifgNQapH-11" value="&lt;font style=&quot;font-size: 29px&quot;&gt;3&lt;/font&gt;" style="text;html=1;strokeColor=default;fillColor=none;align=center;verticalAlign=middle;whiteSpace=wrap;rounded=0;fontColor=#3333FF;" vertex="1" parent="1">
          <mxGeometry x="863.5" y="409" width="60" height="40" as="geometry" />
        </mxCell>
        <mxCell id="zEQnZdZl433EifgNQapH-12" value="Lookup Booking" style="text;html=1;strokeColor=none;fillColor=none;align=center;verticalAlign=middle;whiteSpace=wrap;rounded=0;" vertex="1" parent="1">
          <mxGeometry x="897" y="375.75" width="40" height="20" as="geometry" />
        </mxCell>
        <mxCell id="zEQnZdZl433EifgNQapH-13" value="" style="verticalLabelPosition=bottom;html=1;verticalAlign=top;align=center;shape=mxgraph.floorplan.table;" vertex="1" parent="1">
          <mxGeometry x="685" y="596" width="170" height="120" as="geometry" />
        </mxCell>
        <mxCell id="zEQnZdZl433EifgNQapH-14" value="" style="verticalLabelPosition=bottom;html=1;verticalAlign=top;align=center;shape=mxgraph.floorplan.chair;rotation=-195;" vertex="1" parent="1">
          <mxGeometry x="795" y="736" width="41" height="52" as="geometry" />
        </mxCell>
        <mxCell id="zEQnZdZl433EifgNQapH-15" value="&lt;font color=&quot;#ff6666&quot;&gt;Issue Key&lt;/font&gt;" style="text;html=1;strokeColor=none;fillColor=none;align=center;verticalAlign=middle;whiteSpace=wrap;rounded=0;" vertex="1" parent="1">
          <mxGeometry x="743.25" y="617.25" width="53.5" height="85.5" as="geometry" />
        </mxCell>
        <mxCell id="zEQnZdZl433EifgNQapH-16" value="" style="sketch=0;pointerEvents=1;shadow=0;dashed=0;html=1;strokeColor=none;fillColor=#505050;labelPosition=center;verticalLabelPosition=bottom;verticalAlign=top;outlineConnect=0;align=center;shape=mxgraph.office.concepts.mailbox2;" vertex="1" parent="1">
          <mxGeometry x="808.5" y="639.5" width="40" height="41" as="geometry" />
        </mxCell>
        <mxCell id="zEQnZdZl433EifgNQapH-17" value="&lt;b&gt;Front Desk&lt;/b&gt;" style="text;html=1;strokeColor=none;fillColor=none;align=center;verticalAlign=middle;whiteSpace=wrap;rounded=0;" vertex="1" parent="1">
          <mxGeometry x="901.75" y="650" width="40" height="20" as="geometry" />
        </mxCell>
        <UserObject label="" tooltip="Point of change.&#xa;How the map is changing e.g. competitive forces." id="zEQnZdZl433EifgNQapH-20">
          <mxCell style="endArrow=open;dashed=1;html=1;strokeColor=#CC0000;endFill=0;strokeWidth=2;exitX=0.778;exitY=0.24;exitDx=0;exitDy=0;exitPerimeter=0;" edge="1" parent="1" source="DQJrWs0o3BV4cv8Y2vMH-4" target="zEQnZdZl433EifgNQapH-16">
            <mxGeometry width="50" height="50" relative="1" as="geometry">
              <mxPoint x="770.8529411764707" y="608" as="sourcePoint" />
              <mxPoint x="746.5239436619713" y="755" as="targetPoint" />
            </mxGeometry>
          </mxCell>
        </UserObject>
        <UserObject label="" tooltip="Point of change.&#xa;How the map is changing e.g. competitive forces." id="zEQnZdZl433EifgNQapH-26">
          <mxCell style="endArrow=open;dashed=1;html=1;strokeColor=#CC0000;endFill=0;strokeWidth=2;" edge="1" parent="1" source="zEQnZdZl433EifgNQapH-14">
            <mxGeometry width="50" height="50" relative="1" as="geometry">
              <mxPoint x="781" y="502" as="sourcePoint" />
              <mxPoint x="831" y="650" as="targetPoint" />
            </mxGeometry>
          </mxCell>
        </UserObject>
        <mxCell id="zEQnZdZl433EifgNQapH-27" value="&lt;font style=&quot;font-size: 29px&quot;&gt;5&lt;/font&gt;" style="text;html=1;strokeColor=default;fillColor=none;align=center;verticalAlign=middle;whiteSpace=wrap;rounded=0;fontColor=#3333FF;" vertex="1" parent="1">
          <mxGeometry x="863.5" y="702.75" width="60" height="40" as="geometry" />
        </mxCell>
        <mxCell id="zEQnZdZl433EifgNQapH-28" value="Request Key" style="text;html=1;strokeColor=none;fillColor=none;align=center;verticalAlign=middle;whiteSpace=wrap;rounded=0;" vertex="1" parent="1">
          <mxGeometry x="836" y="509" width="40" height="20" as="geometry" />
        </mxCell>
        <mxCell id="zEQnZdZl433EifgNQapH-29" value="&lt;font style=&quot;font-size: 29px&quot;&gt;4&lt;/font&gt;" style="text;html=1;strokeColor=default;fillColor=none;align=center;verticalAlign=middle;whiteSpace=wrap;rounded=0;fontColor=#3333FF;" vertex="1" parent="1">
          <mxGeometry x="743.5" y="449" width="60" height="40" as="geometry" />
        </mxCell>
        <mxCell id="zEQnZdZl433EifgNQapH-30" value="" style="points=[[0,0.5,0],[0.24,0,0],[0.5,0.28,0],[0.995,0.475,0],[0.5,0.72,0],[0.24,1,0]];verticalLabelPosition=bottom;sketch=0;html=1;verticalAlign=top;aspect=fixed;align=center;pointerEvents=1;shape=mxgraph.cisco19.key;fillColor=#005073;strokeColor=none;" vertex="1" parent="1">
          <mxGeometry x="580" y="579" width="50" height="22.5" as="geometry" />
        </mxCell>
        <mxCell id="zEQnZdZl433EifgNQapH-31" value="" style="sketch=0;points=[[0,0,0],[0.25,0,0],[0.5,0,0],[0.75,0,0],[1,0,0],[0,1,0],[0.25,1,0],[0.5,1,0],[0.75,1,0],[1,1,0],[0,0.25,0],[0,0.5,0],[0,0.75,0],[1,0.25,0],[1,0.5,0],[1,0.75,0]];outlineConnect=0;fontColor=#232F3E;fillColor=#DD344C;strokeColor=#ffffff;dashed=0;verticalLabelPosition=bottom;verticalAlign=top;align=center;html=1;fontSize=12;fontStyle=0;aspect=fixed;shape=mxgraph.aws4.resourceIcon;resIcon=mxgraph.aws4.key_management_service;" vertex="1" parent="1">
          <mxGeometry x="690" y="636" width="40" height="40" as="geometry" />
        </mxCell>
        <UserObject label="" tooltip="Point of change.&#xa;How the map is changing e.g. competitive forces." id="zEQnZdZl433EifgNQapH-32">
          <mxCell style="endArrow=open;dashed=1;html=1;strokeColor=#CC0000;endFill=0;strokeWidth=2;" edge="1" parent="1" target="zEQnZdZl433EifgNQapH-30">
            <mxGeometry width="50" height="50" relative="1" as="geometry">
              <mxPoint x="720" y="669" as="sourcePoint" />
              <mxPoint x="838" y="650" as="targetPoint" />
            </mxGeometry>
          </mxCell>
        </UserObject>
        <UserObject label="" tooltip="Point of change.&#xa;How the map is changing e.g. competitive forces." id="zEQnZdZl433EifgNQapH-34">
          <mxCell style="endArrow=open;dashed=1;html=1;strokeColor=#CC0000;endFill=0;strokeWidth=2;" edge="1" parent="1" target="zEQnZdZl433EifgNQapH-1">
            <mxGeometry width="50" height="50" relative="1" as="geometry">
              <mxPoint x="589" y="579" as="sourcePoint" />
              <mxPoint x="490" y="512" as="targetPoint" />
            </mxGeometry>
          </mxCell>
        </UserObject>
        <mxCell id="zEQnZdZl433EifgNQapH-35" value="Take Key Request" style="text;html=1;strokeColor=none;fillColor=none;align=center;verticalAlign=middle;whiteSpace=wrap;rounded=0;" vertex="1" parent="1">
          <mxGeometry x="876.75" y="759" width="40" height="20" as="geometry" />
        </mxCell>
        <mxCell id="zEQnZdZl433EifgNQapH-36" value="&lt;font style=&quot;font-size: 29px&quot;&gt;5&lt;/font&gt;" style="text;html=1;strokeColor=default;fillColor=none;align=center;verticalAlign=middle;whiteSpace=wrap;rounded=0;fontColor=#3333FF;" vertex="1" parent="1">
          <mxGeometry x="550" y="609" width="60" height="40" as="geometry" />
        </mxCell>
        <mxCell id="zEQnZdZl433EifgNQapH-37" value="Issue&lt;div&gt;Key&lt;/div&gt;" style="text;html=1;strokeColor=none;fillColor=none;align=center;verticalAlign=middle;whiteSpace=wrap;rounded=0;" vertex="1" parent="1">
          <mxGeometry x="563.25" y="665.25" width="40" height="20" as="geometry" />
        </mxCell>
      </root>
    </mxGraphModel>
  </diagram>
</mxfile>
